<?xml version="1.0" encoding="UTF-8" standalone="no"?>
<!DOCTYPE svg PUBLIC "-//W3C//DTD SVG 1.1//EN"
 "http://www.w3.org/Graphics/SVG/1.1/DTD/svg11.dtd">
<!-- Generated by graphviz version 8.1.0 (20230707.0739)
 -->
<!-- Title: callgraph Pages: 1 -->
<svg width="1072pt" height="260pt"
 viewBox="0.00 0.00 1071.89 260.00" xmlns="http://www.w3.org/2000/svg" xmlns:xlink="http://www.w3.org/1999/xlink">
<g id="graph0" class="graph" transform="scale(1 1) rotate(0) translate(4 256)">
<title>callgraph</title>
<polygon fill="white" stroke="none" points="-4,4 -4,-256 1067.89,-256 1067.89,4 -4,4"/>
<!-- env_copy_var -->
<g id="node1" class="node">
<title>env_copy_var</title>
<ellipse fill="none" stroke="black" cx="58.83" cy="-90" rx="58.83" ry="18"/>
<text text-anchor="middle" x="58.83" y="-83.83" font-family="Times,serif" font-size="14.00">env_copy_var</text>
</g>
<!-- str_copy -->
<g id="node14" class="node">
<title>str_copy</title>
<ellipse fill="none" stroke="black" cx="180.83" cy="-18" rx="39.75" ry="18"/>
<text text-anchor="middle" x="180.83" y="-11.82" font-family="Times,serif" font-size="14.00">str_copy</text>
</g>
<!-- env_copy_var&#45;&gt;str_copy -->
<g id="edge1" class="edge">
<title>env_copy_var&#45;&gt;str_copy</title>
<path fill="none" stroke="black" d="M85.61,-73.64C103.85,-63.17 128.13,-49.24 147.6,-38.07"/>
<polygon fill="black" stroke="black" points="149.08,-40.68 156.01,-32.67 145.6,-34.61 149.08,-40.68"/>
</g>
<!-- env_init -->
<g id="node2" class="node">
<title>env_init</title>
<ellipse fill="none" stroke="black" cx="124.83" cy="-162" rx="38.32" ry="18"/>
<text text-anchor="middle" x="124.83" y="-155.82" font-family="Times,serif" font-size="14.00">env_init</text>
</g>
<!-- env_is_name -->
<g id="node3" class="node">
<title>env_is_name</title>
<ellipse fill="none" stroke="black" cx="191.83" cy="-90" rx="55.97" ry="18"/>
<text text-anchor="middle" x="191.83" y="-83.83" font-family="Times,serif" font-size="14.00">env_is_name</text>
</g>
<!-- env_restore -->
<g id="node4" class="node">
<title>env_restore</title>
<ellipse fill="none" stroke="black" cx="231.83" cy="-162" rx="50.25" ry="18"/>
<text text-anchor="middle" x="231.83" y="-155.82" font-family="Times,serif" font-size="14.00">env_restore</text>
</g>
<!-- env_restore&#45;&gt;env_is_name -->
<g id="edge2" class="edge">
<title>env_restore&#45;&gt;env_is_name</title>
<path fill="none" stroke="black" d="M222.15,-144.05C217.53,-135.97 211.9,-126.12 206.75,-117.11"/>
<polygon fill="black" stroke="black" points="209.43,-115.73 201.43,-108.79 203.35,-119.21 209.43,-115.73"/>
</g>
<!-- str_split -->
<g id="node16" class="node">
<title>str_split</title>
<ellipse fill="none" stroke="black" cx="303.83" cy="-90" rx="37.84" ry="18"/>
<text text-anchor="middle" x="303.83" y="-83.83" font-family="Times,serif" font-size="14.00">str_split</text>
</g>
<!-- env_restore&#45;&gt;str_split -->
<g id="edge3" class="edge">
<title>env_restore&#45;&gt;str_split</title>
<path fill="none" stroke="black" d="M248.53,-144.76C257.84,-135.71 269.59,-124.29 279.87,-114.3"/>
<polygon fill="black" stroke="black" points="281.99,-117.15 286.72,-107.67 277.11,-112.13 281.99,-117.15"/>
</g>
<!-- error -->
<g id="node5" class="node">
<title>error</title>
<ellipse fill="none" stroke="black" cx="327.83" cy="-162" rx="27.35" ry="18"/>
<text text-anchor="middle" x="327.83" y="-155.82" font-family="Times,serif" font-size="14.00">error</text>
</g>
<!-- handler_find -->
<g id="node6" class="node">
<title>handler_find</title>
<ellipse fill="none" stroke="black" cx="426.83" cy="-162" rx="53.58" ry="18"/>
<text text-anchor="middle" x="426.83" y="-155.82" font-family="Times,serif" font-size="14.00">handler_find</text>
</g>
<!-- pair_find -->
<g id="node8" class="node">
<title>pair_find</title>
<ellipse fill="none" stroke="black" cx="413.83" cy="-90" rx="41.18" ry="18"/>
<text text-anchor="middle" x="413.83" y="-83.83" font-family="Times,serif" font-size="14.00">pair_find</text>
</g>
<!-- handler_find&#45;&gt;pair_find -->
<g id="edge4" class="edge">
<title>handler_find&#45;&gt;pair_find</title>
<path fill="none" stroke="black" d="M423.62,-143.7C422.22,-136.15 420.54,-127.12 418.97,-118.68"/>
<polygon fill="black" stroke="black" points="422.28,-118.3 417.01,-109.1 415.39,-119.58 422.28,-118.3"/>
</g>
<!-- path_suffix -->
<g id="node10" class="node">
<title>path_suffix</title>
<ellipse fill="none" stroke="black" cx="521.83" cy="-90" rx="48.81" ry="18"/>
<text text-anchor="middle" x="521.83" y="-83.83" font-family="Times,serif" font-size="14.00">path_suffix</text>
</g>
<!-- handler_find&#45;&gt;path_suffix -->
<g id="edge5" class="edge">
<title>handler_find&#45;&gt;path_suffix</title>
<path fill="none" stroke="black" d="M448.39,-145.12C461.35,-135.56 478.04,-123.27 492.23,-112.81"/>
<polygon fill="black" stroke="black" points="493.71,-115.33 499.69,-106.58 489.56,-109.69 493.71,-115.33"/>
</g>
<!-- main -->
<g id="node7" class="node">
<title>main</title>
<ellipse fill="none" stroke="black" cx="483.83" cy="-234" rx="27.83" ry="18"/>
<text text-anchor="middle" x="483.83" y="-227.82" font-family="Times,serif" font-size="14.00">main</text>
</g>
<!-- main&#45;&gt;env_copy_var -->
<g id="edge6" class="edge">
<title>main&#45;&gt;env_copy_var</title>
<path fill="none" stroke="black" d="M455.72,-233.38C373.02,-233.88 132.95,-230.85 77.83,-180 61.33,-164.78 57.29,-139.03 56.97,-119.13"/>
<polygon fill="black" stroke="black" points="60.48,-119.27 57.14,-109.22 53.48,-119.16 60.48,-119.27"/>
</g>
<!-- main&#45;&gt;env_init -->
<g id="edge7" class="edge">
<title>main&#45;&gt;env_init</title>
<path fill="none" stroke="black" d="M456.46,-229.94C401.89,-223.48 275.93,-206.83 172.83,-180 170,-179.26 167.1,-178.43 164.2,-177.55"/>
<polygon fill="black" stroke="black" points="165.37,-173.92 154.77,-174.15 163.2,-180.58 165.37,-173.92"/>
</g>
<!-- main&#45;&gt;env_restore -->
<g id="edge8" class="edge">
<title>main&#45;&gt;env_restore</title>
<path fill="none" stroke="black" d="M458.35,-226.02C421.56,-215.94 351.44,-196.67 291.83,-180 288.23,-178.99 284.51,-177.95 280.76,-176.89"/>
<polygon fill="black" stroke="black" points="281.81,-173.27 271.23,-173.92 279.9,-180.01 281.81,-173.27"/>
</g>
<!-- main&#45;&gt;error -->
<g id="edge9" class="edge">
<title>main&#45;&gt;error</title>
<path fill="none" stroke="black" d="M461.2,-223.21C437.01,-212.69 397.6,-195.43 363.83,-180 362.38,-179.34 360.89,-178.65 359.39,-177.96"/>
<polygon fill="black" stroke="black" points="361.03,-174.4 350.49,-173.34 358.07,-180.74 361.03,-174.4"/>
</g>
<!-- main&#45;&gt;handler_find -->
<g id="edge10" class="edge">
<title>main&#45;&gt;handler_find</title>
<path fill="none" stroke="black" d="M471.18,-217.46C464.08,-208.74 455.05,-197.65 447,-187.76"/>
<polygon fill="black" stroke="black" points="449.27,-186.01 440.24,-180.47 443.84,-190.43 449.27,-186.01"/>
</g>
<!-- path_real -->
<g id="node9" class="node">
<title>path_real</title>
<ellipse fill="none" stroke="black" cx="540.83" cy="-162" rx="42.14" ry="18"/>
<text text-anchor="middle" x="540.83" y="-155.82" font-family="Times,serif" font-size="14.00">path_real</text>
</g>
<!-- main&#45;&gt;path_real -->
<g id="edge11" class="edge">
<title>main&#45;&gt;path_real</title>
<path fill="none" stroke="black" d="M496.48,-217.46C503.59,-208.74 512.61,-197.65 520.67,-187.76"/>
<polygon fill="black" stroke="black" points="523.82,-190.43 527.42,-180.47 518.39,-186.01 523.82,-190.43"/>
</g>
<!-- path_within -->
<g id="node11" class="node">
<title>path_within</title>
<ellipse fill="none" stroke="black" cx="651.83" cy="-162" rx="51.2" ry="18"/>
<text text-anchor="middle" x="651.83" y="-155.82" font-family="Times,serif" font-size="14.00">path_within</text>
</g>
<!-- main&#45;&gt;path_within -->
<g id="edge12" class="edge">
<title>main&#45;&gt;path_within</title>
<path fill="none" stroke="black" d="M506.84,-223.41C533.19,-212.43 576.93,-194.21 609.48,-180.65"/>
<polygon fill="black" stroke="black" points="610.74,-183.5 618.62,-176.42 608.05,-177.04 610.74,-183.5"/>
</g>
<!-- priv_drop -->
<g id="node12" class="node">
<title>priv_drop</title>
<ellipse fill="none" stroke="black" cx="765.83" cy="-162" rx="44.52" ry="18"/>
<text text-anchor="middle" x="765.83" y="-155.82" font-family="Times,serif" font-size="14.00">priv_drop</text>
</g>
<!-- main&#45;&gt;priv_drop -->
<g id="edge13" class="edge">
<title>main&#45;&gt;priv_drop</title>
<path fill="none" stroke="black" d="M510.33,-227.53C553,-218.57 639.5,-199.76 711.83,-180 715,-179.13 718.26,-178.2 721.54,-177.24"/>
<polygon fill="black" stroke="black" points="722.4,-180.34 730.96,-174.1 720.37,-173.64 722.4,-180.34"/>
</g>
<!-- priv_suspend -->
<g id="node13" class="node">
<title>priv_suspend</title>
<ellipse fill="none" stroke="black" cx="884.83" cy="-162" rx="56.45" ry="18"/>
<text text-anchor="middle" x="884.83" y="-155.82" font-family="Times,serif" font-size="14.00">priv_suspend</text>
</g>
<!-- main&#45;&gt;priv_suspend -->
<g id="edge14" class="edge">
<title>main&#45;&gt;priv_suspend</title>
<path fill="none" stroke="black" d="M511,-229.65C568.37,-222.36 705.96,-203.81 819.83,-180 824.14,-179.1 828.58,-178.1 833.03,-177.04"/>
<polygon fill="black" stroke="black" points="833.49,-180.29 842.37,-174.5 831.82,-173.49 833.49,-180.29"/>
</g>
<!-- userdir_exp -->
<g id="node17" class="node">
<title>userdir_exp</title>
<ellipse fill="none" stroke="black" cx="1009.83" cy="-162" rx="50.72" ry="18"/>
<text text-anchor="middle" x="1009.83" y="-155.82" font-family="Times,serif" font-size="14.00">userdir_exp</text>
</g>
<!-- main&#45;&gt;userdir_exp -->
<g id="edge15" class="edge">
<title>main&#45;&gt;userdir_exp</title>
<path fill="none" stroke="black" d="M511.65,-231.42C584.29,-226.96 785.47,-212.41 949.83,-180 953.9,-179.2 958.09,-178.26 962.28,-177.23"/>
<polygon fill="black" stroke="black" points="962.81,-180.45 971.61,-174.56 961.05,-173.68 962.81,-180.45"/>
</g>
<!-- str_fmtspecs -->
<g id="node15" class="node">
<title>str_fmtspecs</title>
<ellipse fill="none" stroke="black" cx="1009.83" cy="-90" rx="54.06" ry="18"/>
<text text-anchor="middle" x="1009.83" y="-83.83" font-family="Times,serif" font-size="14.00">str_fmtspecs</text>
</g>
<!-- str_split&#45;&gt;str_copy -->
<g id="edge16" class="edge">
<title>str_split&#45;&gt;str_copy</title>
<path fill="none" stroke="black" d="M280.12,-75.5C261.43,-64.87 235.16,-49.92 214.33,-38.06"/>
<polygon fill="black" stroke="black" points="216.32,-34.6 205.89,-32.69 212.85,-40.68 216.32,-34.6"/>
</g>
<!-- userdir_exp&#45;&gt;str_fmtspecs -->
<g id="edge17" class="edge">
<title>userdir_exp&#45;&gt;str_fmtspecs</title>
<path fill="none" stroke="black" d="M1009.83,-143.7C1009.83,-136.24 1009.83,-127.32 1009.83,-118.97"/>
<polygon fill="black" stroke="black" points="1013.33,-119.1 1009.83,-109.1 1006.33,-119.1 1013.33,-119.1"/>
</g>
</g>
</svg>
